<svg xmlns="http://www.w3.org/2000/svg" viewBox="0 0 1500 1000" width="1500" height="1000">
  <defs>
    <!-- Parchment background gradient -->
    <linearGradient id="parchment" x1="0%" y1="0%" x2="100%" y2="100%">
      <stop offset="0%" stop-color="#d4c5a0"/>
      <stop offset="35%" stop-color="#d0c098"/>
      <stop offset="65%" stop-color="#ccbb92"/>
      <stop offset="100%" stop-color="#c9b88a"/>
    </linearGradient>

    <!-- Radial stain for aged look -->
    <radialGradient id="stain1" cx="25%" cy="30%" r="40%">
      <stop offset="0%" stop-color="#b8a878" stop-opacity="0.15"/>
      <stop offset="100%" stop-color="#b8a878" stop-opacity="0"/>
    </radialGradient>
    <radialGradient id="stain2" cx="70%" cy="65%" r="35%">
      <stop offset="0%" stop-color="#a89868" stop-opacity="0.12"/>
      <stop offset="100%" stop-color="#a89868" stop-opacity="0"/>
    </radialGradient>
    <radialGradient id="stain3" cx="50%" cy="80%" r="30%">
      <stop offset="0%" stop-color="#c0aa78" stop-opacity="0.1"/>
      <stop offset="100%" stop-color="#c0aa78" stop-opacity="0"/>
    </radialGradient>

    <!-- Water fill for sea/bay -->
    <linearGradient id="waterFill" x1="0%" y1="0%" x2="50%" y2="100%">
      <stop offset="0%" stop-color="#8aabbf" stop-opacity="0.25"/>
      <stop offset="100%" stop-color="#7a9baf" stop-opacity="0.35"/>
    </linearGradient>

    <!-- Forest pattern (small trees) -->
    <pattern id="forestPattern" x="0" y="0" width="20" height="20" patternUnits="userSpaceOnUse">
      <path d="M10 4 L7 10 L13 10 Z" fill="none" stroke="#3d5a2a" stroke-width="0.8" opacity="0.5"/>
      <line x1="10" y1="10" x2="10" y2="14" stroke="#5a4a2a" stroke-width="0.6" opacity="0.4"/>
    </pattern>

    <!-- Stipple pattern for desert/wasteland -->
    <pattern id="wastelandPattern" x="0" y="0" width="12" height="12" patternUnits="userSpaceOnUse">
      <circle cx="3" cy="3" r="0.6" fill="#3d2b1f" opacity="0.15"/>
      <circle cx="9" cy="8" r="0.5" fill="#3d2b1f" opacity="0.12"/>
      <circle cx="6" cy="11" r="0.4" fill="#3d2b1f" opacity="0.1"/>
    </pattern>

    <!-- Compass rose marker -->
    <marker id="arrowN" markerWidth="6" markerHeight="6" refX="3" refY="6" orient="auto">
      <path d="M3 0 L0 6 L3 4 L6 6 Z" fill="#3d2b1f"/>
    </marker>

    <!-- Filter for aged/rough text -->
    <filter id="roughen" x="-2%" y="-2%" width="104%" height="104%">
      <feTurbulence type="turbulence" baseFrequency="0.04" numOctaves="4" result="noise"/>
      <feDisplacementMap in="SourceGraphic" in2="noise" scale="1.2" xChannelSelector="R" yChannelSelector="G"/>
    </filter>

    <!-- Glow for important locations -->
    <filter id="glow">
      <feGaussianBlur stdDeviation="2" result="blur"/>
      <feMerge>
        <feMergeNode in="blur"/>
        <feMergeNode in="SourceGraphic"/>
      </feMerge>
    </filter>

    <!-- Vignette for edges -->
    <radialGradient id="vignette" cx="50%" cy="50%" r="55%">
      <stop offset="0%" stop-color="transparent" stop-opacity="0"/>
      <stop offset="75%" stop-color="transparent" stop-opacity="0"/>
      <stop offset="100%" stop-color="#2a1a0a" stop-opacity="0.2"/>
    </radialGradient>
  </defs>

  <!-- ==================== BACKGROUND ==================== -->
  <rect width="1500" height="1000" fill="url(#parchment)"/>
  <!-- Parchment stains for aged look -->
  <rect width="1500" height="1000" fill="url(#stain1)"/>
  <rect width="1500" height="1000" fill="url(#stain2)"/>
  <rect width="1500" height="1000" fill="url(#stain3)"/>

  <!-- ==================== DECORATIVE BORDER ==================== -->
  <g stroke="#3d2b1f" fill="none">
    <!-- Outer border -->
    <rect x="15" y="15" width="1470" height="970" stroke-width="3" rx="4" ry="4"/>
    <!-- Inner border -->
    <rect x="25" y="25" width="1450" height="950" stroke-width="1.5" rx="2" ry="2"/>
    <!-- Corner ornaments - top left -->
    <path d="M25 55 Q15 25 55 25" stroke-width="2"/>
    <path d="M30 70 C20 40 40 20 70 30" stroke-width="1" opacity="0.6"/>
    <circle cx="38" cy="38" r="4" stroke-width="1"/>
    <circle cx="38" cy="38" r="1.5" fill="#3d2b1f"/>
    <!-- Corner ornaments - top right -->
    <path d="M1475 55 Q1485 25 1445 25" stroke-width="2"/>
    <path d="M1470 70 C1480 40 1460 20 1430 30" stroke-width="1" opacity="0.6"/>
    <circle cx="1462" cy="38" r="4" stroke-width="1"/>
    <circle cx="1462" cy="38" r="1.5" fill="#3d2b1f"/>
    <!-- Corner ornaments - bottom left -->
    <path d="M25 945 Q15 975 55 975" stroke-width="2"/>
    <path d="M30 930 C20 960 40 980 70 970" stroke-width="1" opacity="0.6"/>
    <circle cx="38" cy="962" r="4" stroke-width="1"/>
    <circle cx="38" cy="962" r="1.5" fill="#3d2b1f"/>
    <!-- Corner ornaments - bottom right -->
    <path d="M1475 945 Q1485 975 1445 975" stroke-width="2"/>
    <path d="M1470 930 C1480 960 1460 980 1430 970" stroke-width="1" opacity="0.6"/>
    <circle cx="1462" cy="962" r="4" stroke-width="1"/>
    <circle cx="1462" cy="962" r="1.5" fill="#3d2b1f"/>
    <!-- Mid-edge decorations -->
    <line x1="45" y1="15" x2="45" y2="25" stroke-width="1" opacity="0.5"/>
    <line x1="65" y1="15" x2="65" y2="25" stroke-width="1" opacity="0.5"/>
    <line x1="1435" y1="15" x2="1435" y2="25" stroke-width="1" opacity="0.5"/>
    <line x1="1455" y1="15" x2="1455" y2="25" stroke-width="1" opacity="0.5"/>
    <line x1="45" y1="975" x2="45" y2="985" stroke-width="1" opacity="0.5"/>
    <line x1="65" y1="975" x2="65" y2="985" stroke-width="1" opacity="0.5"/>
    <line x1="1435" y1="975" x2="1435" y2="985" stroke-width="1" opacity="0.5"/>
    <line x1="1455" y1="975" x2="1455" y2="985" stroke-width="1" opacity="0.5"/>
  </g>

  <!-- ==================== WESTERN SEA / BELEGAER ==================== -->
  <g>
    <!-- Sea area along left and bottom-left -->
    <path d="M25 25 L25 975 L250 975
             C230 920 200 870 180 820
             C160 770 140 720 120 670
             C100 620 90 570 80 520
             C70 470 65 420 60 370
             C55 320 55 270 58 220
             C60 170 65 120 70 80
             C72 60 75 40 80 25 Z"
          fill="url(#waterFill)" stroke="none"/>
    <!-- Coastline -->
    <path d="M80 25 C75 40 72 60 70 80
             C65 120 60 170 58 220
             C55 270 55 320 60 370
             C65 420 70 470 80 520
             C90 570 100 620 120 670
             C140 720 160 770 180 820
             C200 870 230 920 250 975"
          fill="none" stroke="#3d2b1f" stroke-width="1.8"
          stroke-dasharray="8,4,2,4" opacity="0.7"/>
    <!-- Secondary coastline detail -->
    <path d="M75 30 C70 50 67 75 65 95
             C60 135 55 185 53 235
             C50 285 50 335 55 385
             C60 435 65 485 75 535
             C85 585 95 635 115 685
             C135 735 155 785 175 835
             C195 880 225 930 245 975"
          fill="none" stroke="#3d2b1f" stroke-width="0.6"
          stroke-dasharray="3,6" opacity="0.35"/>
    <!-- Wave marks in the sea -->
    <path d="M40 200 Q50 195 60 200" fill="none" stroke="#5a7a8a" stroke-width="0.8" opacity="0.3"/>
    <path d="M35 250 Q48 244 58 250" fill="none" stroke="#5a7a8a" stroke-width="0.8" opacity="0.3"/>
    <path d="M42 350 Q52 345 62 350" fill="none" stroke="#5a7a8a" stroke-width="0.8" opacity="0.25"/>
    <path d="M50 450 Q60 445 70 450" fill="none" stroke="#5a7a8a" stroke-width="0.8" opacity="0.3"/>
    <path d="M55 550 Q68 544 78 550" fill="none" stroke="#5a7a8a" stroke-width="0.8" opacity="0.25"/>
    <path d="M70 650 Q82 644 92 650" fill="none" stroke="#5a7a8a" stroke-width="0.8" opacity="0.3"/>
    <path d="M100 750 Q112 744 122 750" fill="none" stroke="#5a7a8a" stroke-width="0.8" opacity="0.25"/>
    <path d="M45 300 Q55 295 65 300" fill="none" stroke="#5a7a8a" stroke-width="0.7" opacity="0.2"/>
    <path d="M60 500 Q72 494 82 500" fill="none" stroke="#5a7a8a" stroke-width="0.7" opacity="0.2"/>
  </g>

  <!-- Bay of Balar -->
  <g>
    <path d="M250 975 C260 940 240 900 220 880
             C200 860 170 855 160 870
             C150 885 160 920 180 945
             C200 960 220 970 250 975 Z"
          fill="url(#waterFill)" stroke="none" opacity="0.8"/>
    <path d="M250 975 C260 940 240 900 220 880
             C200 860 170 855 160 870
             C150 885 160 920 180 945"
          fill="none" stroke="#3d2b1f" stroke-width="1.5"
          stroke-dasharray="6,3,2,3" opacity="0.6"/>
    <!-- Isle of Balar -->
    <ellipse cx="170" cy="920" rx="18" ry="12" fill="#d0bb90" stroke="#3d2b1f" stroke-width="0.8" opacity="0.8"/>
    <text x="170" y="924" text-anchor="middle" font-family="serif" font-size="8" fill="#3d2b1f" opacity="0.7">
      <tspan font-style="italic">Balar</tspan>
    </text>
  </g>

  <!-- Sea labels -->
  <text x="45" y="450" font-family="serif" font-size="22" fill="#4a6a7a" opacity="0.4"
        font-style="italic" writing-mode="tb" text-anchor="middle" letter-spacing="8">Belegaer</text>

  <text x="200" y="940" font-family="serif" font-size="11" fill="#4a6a7a" opacity="0.5" font-style="italic" text-anchor="middle">Bay of Balar</text>

  <!-- ==================== MOUNTAIN RANGES ==================== -->

  <!-- ERED ENGRIN (Iron Mountains) - across the top/north -->
  <g stroke="#3d2b1f" fill="none" stroke-width="1.2" opacity="0.75">
    <!-- Main range spanning the north -->
    <path d="M200 80 L207 65 L214 80"/>
    <path d="M220 78 L228 60 L236 78"/>
    <path d="M242 76 L251 58 L260 76"/>
    <path d="M266 78 L275 62 L284 78"/>
    <path d="M290 75 L300 55 L310 75"/>
    <path d="M316 77 L326 58 L336 77"/>
    <path d="M342 74 L353 52 L364 74"/>
    <path d="M370 76 L380 57 L390 76"/>
    <path d="M396 73 L408 50 L420 73"/>
    <path d="M426 75 L436 56 L446 75"/>
    <path d="M452 72 L465 48 L478 72"/>
    <path d="M484 74 L495 54 L506 74"/>
    <path d="M512 71 L525 46 L538 71"/>
    <path d="M544 73 L555 53 L566 73"/>
    <path d="M572 70 L585 45 L598 70"/>
    <path d="M604 72 L615 52 L626 72"/>
    <path d="M632 69 L645 44 L658 69"/>
    <path d="M664 71 L675 51 L686 71"/>
    <path d="M692 68 L705 43 L718 68"/>
    <path d="M724 70 L735 50 L746 70"/>
    <path d="M752 67 L765 42 L778 67"/>
    <path d="M784 70 L795 50 L806 70"/>
    <path d="M812 68 L825 45 L838 68"/>
    <path d="M844 70 L855 52 L866 70"/>
    <path d="M872 67 L885 44 L898 67"/>
    <path d="M904 70 L915 52 L926 70"/>
    <path d="M932 68 L943 48 L954 68"/>
    <path d="M960 70 L970 52 L980 70"/>
    <path d="M986 68 L996 50 L1006 68"/>
    <path d="M1012 70 L1022 53 L1032 70"/>
    <path d="M1038 67 L1050 47 L1062 67"/>
    <path d="M1068 70 L1078 53 L1088 70"/>
    <path d="M1094 68 L1105 50 L1116 68"/>
    <path d="M1122 70 L1132 54 L1142 70"/>
    <path d="M1148 72 L1158 56 L1168 72"/>
    <path d="M1174 73 L1184 57 L1194 73"/>
    <path d="M1200 75 L1210 58 L1220 75"/>
    <path d="M1226 76 L1236 60 L1246 76"/>
    <path d="M1252 78 L1260 62 L1268 78"/>
    <!-- Second row behind for depth -->
    <g opacity="0.4" transform="translate(8,-12)">
      <path d="M220 80 L230 65 L240 80"/>
      <path d="M260 78 L272 60 L284 78"/>
      <path d="M310 76 L322 58 L334 76"/>
      <path d="M370 74 L384 54 L398 74"/>
      <path d="M430 73 L445 52 L460 73"/>
      <path d="M500 72 L515 50 L530 72"/>
      <path d="M570 71 L585 48 L600 71"/>
      <path d="M640 70 L655 46 L670 70"/>
      <path d="M710 69 L725 44 L740 69"/>
      <path d="M780 70 L795 48 L810 70"/>
      <path d="M850 71 L865 50 L880 71"/>
      <path d="M920 72 L933 52 L946 72"/>
      <path d="M990 73 L1002 54 L1014 73"/>
      <path d="M1060 72 L1072 52 L1084 72"/>
      <path d="M1130 74 L1142 56 L1154 74"/>
    </g>
    <!-- Label -->
    <text x="700" y="42" text-anchor="middle" font-family="serif" font-size="16" fill="#3d2b1f"
          font-variant="small-caps" letter-spacing="12" opacity="0.85" stroke="none">
      Ered Engrin
    </text>
    <text x="700" y="56" text-anchor="middle" font-family="serif" font-size="10" fill="#3d2b1f"
          font-style="italic" letter-spacing="4" opacity="0.6" stroke="none">
      Iron Mountains
    </text>
  </g>

  <!-- THANGORODRIM - three great peaks near Angband -->
  <g stroke="#3d2b1f" fill="none" stroke-width="1.8" opacity="0.85">
    <path d="M460 120 L472 85 L484 120"/>
    <path d="M475 118 L490 78 L505 118"/>
    <path d="M498 120 L510 88 L522 120"/>
    <!-- Smoke/fumes from Thangorodrim -->
    <path d="M490 78 C488 68 492 58 488 48" stroke-width="0.8" opacity="0.3" stroke-dasharray="2,3"/>
    <path d="M492 76 C495 65 490 55 494 44" stroke-width="0.8" opacity="0.25" stroke-dasharray="2,3"/>
  </g>

  <!-- ERED WETHRIN (Mountains of Shadow) - separating Hithlum -->
  <g stroke="#3d2b1f" fill="none" stroke-width="1.1" opacity="0.7">
    <!-- Running roughly south from Iron Mtns, then east, enclosing Hithlum -->
    <!-- Western arm going south -->
    <path d="M200 130 L208 115 L216 130"/>
    <path d="M210 145 L218 128 L226 145"/>
    <path d="M218 160 L226 143 L234 160"/>
    <path d="M225 178 L234 160 L243 178"/>
    <path d="M232 195 L241 177 L250 195"/>
    <path d="M238 212 L248 194 L258 212"/>
    <path d="M244 230 L254 212 L264 230"/>
    <path d="M250 248 L260 230 L270 248"/>
    <path d="M256 265 L266 247 L276 265"/>
    <path d="M262 283 L273 264 L284 283"/>
    <!-- Curving east under Hithlum -->
    <path d="M284 290 L296 272 L308 290"/>
    <path d="M308 295 L322 276 L336 295"/>
    <path d="M336 298 L350 280 L364 298"/>
    <path d="M364 300 L378 282 L392 300"/>
    <path d="M392 298 L406 280 L420 298"/>
    <!-- Label -->
    <text x="215" y="320" text-anchor="start" font-family="serif" font-size="12" fill="#3d2b1f"
          font-variant="small-caps" letter-spacing="3" opacity="0.75" stroke="none"
          transform="rotate(-70, 215, 320)">
      Ered Wethrin
    </text>
  </g>

  <!-- ERED GORGOROTH (Mountains of Terror) - south of Nan Dungortheb -->
  <g stroke="#3d2b1f" fill="none" stroke-width="1.0" opacity="0.65">
    <path d="M520 370 L528 355 L536 370"/>
    <path d="M540 368 L550 352 L560 368"/>
    <path d="M564 370 L574 354 L584 370"/>
    <path d="M588 368 L598 350 L608 368"/>
    <path d="M612 370 L622 354 L632 370"/>
    <path d="M636 368 L646 350 L656 368"/>
    <path d="M660 370 L670 354 L680 370"/>
    <path d="M684 368 L694 352 L704 368"/>
    <!-- Back row -->
    <g opacity="0.4" transform="translate(6,-8)">
      <path d="M530 370 L540 356 L550 370"/>
      <path d="M570 368 L580 354 L590 368"/>
      <path d="M620 370 L630 356 L640 370"/>
      <path d="M670 368 L680 354 L690 368"/>
    </g>
    <text x="620" y="390" text-anchor="middle" font-family="serif" font-size="11" fill="#3d2b1f"
          font-variant="small-caps" letter-spacing="2" opacity="0.7" stroke="none">
      Ered Gorgoroth
    </text>
  </g>

  <!-- ERED LUIN (Blue Mountains) - eastern edge -->
  <g stroke="#3d2b1f" fill="none" stroke-width="1.1" opacity="0.7">
    <!-- Running north-south along right side -->
    <path d="M1320 120 L1330 105 L1340 120"/>
    <path d="M1322 140 L1333 123 L1344 140"/>
    <path d="M1325 160 L1336 142 L1347 160"/>
    <path d="M1328 180 L1340 162 L1352 180"/>
    <path d="M1330 200 L1342 182 L1354 200"/>
    <path d="M1332 222 L1344 203 L1356 222"/>
    <path d="M1334 244 L1347 225 L1360 244"/>
    <path d="M1336 266 L1349 247 L1362 266"/>
    <path d="M1338 288 L1351 269 L1364 288"/>
    <path d="M1340 310 L1353 291 L1366 310"/>
    <path d="M1341 332 L1355 313 L1369 332"/>
    <path d="M1342 354 L1356 335 L1370 354"/>
    <path d="M1343 376 L1357 357 L1371 376"/>
    <path d="M1344 398 L1358 379 L1372 398"/>
    <path d="M1345 420 L1359 401 L1373 420"/>
    <path d="M1346 442 L1360 423 L1374 442"/>
    <path d="M1347 464 L1361 445 L1375 464"/>
    <path d="M1348 486 L1362 467 L1376 486"/>
    <path d="M1348 508 L1363 489 L1378 508"/>
    <path d="M1348 530 L1363 511 L1378 530"/>
    <path d="M1348 552 L1363 533 L1378 552"/>
    <path d="M1346 574 L1361 555 L1376 574"/>
    <path d="M1344 596 L1359 577 L1374 596"/>
    <path d="M1342 618 L1357 599 L1372 618"/>
    <path d="M1340 640 L1355 621 L1370 640"/>
    <path d="M1338 662 L1353 643 L1368 662"/>
    <path d="M1336 684 L1351 665 L1366 684"/>
    <path d="M1334 706 L1349 687 L1364 706"/>
    <path d="M1332 728 L1347 709 L1362 728"/>
    <path d="M1330 750 L1345 731 L1360 750"/>
    <path d="M1328 772 L1343 753 L1358 772"/>
    <path d="M1326 794 L1341 775 L1356 794"/>
    <path d="M1324 816 L1339 797 L1354 816"/>
    <!-- Back row -->
    <g opacity="0.35" transform="translate(-10,-6)">
      <path d="M1325 150 L1336 134 L1347 150"/>
      <path d="M1330 210 L1342 193 L1354 210"/>
      <path d="M1336 280 L1349 262 L1362 280"/>
      <path d="M1340 350 L1354 332 L1368 350"/>
      <path d="M1344 420 L1358 402 L1372 420"/>
      <path d="M1348 490 L1362 472 L1376 490"/>
      <path d="M1348 560 L1363 542 L1378 560"/>
      <path d="M1344 630 L1359 612 L1374 630"/>
      <path d="M1338 700 L1353 682 L1368 700"/>
      <path d="M1330 770 L1345 752 L1360 770"/>
    </g>
    <!-- Label -->
    <text x="1395" y="460" text-anchor="middle" font-family="serif" font-size="14" fill="#3d2b1f"
          font-variant="small-caps" letter-spacing="5" opacity="0.8" stroke="none"
          transform="rotate(88, 1395, 460)">
      Ered Luin
    </text>
    <text x="1420" y="460" text-anchor="middle" font-family="serif" font-size="9" fill="#3d2b1f"
          font-style="italic" letter-spacing="2" opacity="0.55" stroke="none"
          transform="rotate(88, 1420, 460)">
      Blue Mountains
    </text>
  </g>

  <!-- ==================== RIVERS ==================== -->

  <!-- SIRION - Major north-south river through center -->
  <g fill="none" stroke="#5a7a8a" opacity="0.7">
    <!-- Main course -->
    <path d="M460 130
             C458 160 455 190 450 220
             C445 260 440 300 435 340
             C430 380 425 410 420 440
             C415 470 410 500 400 540
             C390 580 380 620 370 660
             C362 700 356 740 352 780
             C348 820 346 860 350 850"
          stroke-width="2.5"/>
    <!-- Thinner parallel line for width -->
    <path d="M463 130
             C461 160 458 190 453 220
             C448 260 443 300 438 340
             C433 380 428 410 423 440
             C418 470 413 500 403 540
             C393 580 383 620 373 660
             C365 700 359 740 355 780
             C351 820 349 860 353 850"
          stroke-width="0.8" opacity="0.5"/>
    <!-- Sirion label -->
    <text x="385" y="630" font-family="serif" font-size="16" fill="#4a6a7a"
          font-style="italic" letter-spacing="3" opacity="0.75"
          transform="rotate(-82, 385, 630)">Sirion</text>
  </g>

  <!-- River into Havens of Sirion at bottom -->
  <g fill="none" stroke="#5a7a8a" opacity="0.6">
    <path d="M350 850 C348 870 350 890 348 910 C346 930 345 950 350 975" stroke-width="2.2"/>
  </g>

  <!-- NAROG - western tributary -->
  <g fill="none" stroke="#5a7a8a" opacity="0.6">
    <path d="M420 350
             C415 370 410 390 405 410
             C400 440 398 470 396 500
             C394 530 392 560 388 590
             C385 620 382 650 380 680
             C378 710 375 735 370 660"
          stroke-width="1.8"/>
    <text x="378" y="490" font-family="serif" font-size="12" fill="#4a6a7a"
          font-style="italic" letter-spacing="2" opacity="0.65"
          transform="rotate(-85, 378, 490)">Narog</text>
  </g>

  <!-- GELION - eastern river -->
  <g fill="none" stroke="#5a7a8a" opacity="0.6">
    <path d="M1100 180
             C1095 220 1090 260 1085 300
             C1080 350 1075 400 1070 450
             C1065 500 1060 550 1055 600
             C1050 650 1045 700 1040 750
             C1035 800 1030 850 1025 900
             C1020 935 1015 960 1010 975"
          stroke-width="2.2"/>
    <path d="M1103 180
             C1098 220 1093 260 1088 300
             C1083 350 1078 400 1073 450
             C1068 500 1063 550 1058 600
             C1053 650 1048 700 1043 750
             C1038 800 1033 850 1028 900
             C1023 935 1018 960 1013 975"
          stroke-width="0.6" opacity="0.4"/>
    <!-- Gelion tributaries -->
    <path d="M1200 350 C1170 380 1140 410 1080 420" stroke-width="1.0" opacity="0.5"/>
    <path d="M1220 450 C1180 480 1140 500 1070 490" stroke-width="1.0" opacity="0.5"/>
    <path d="M1240 550 C1200 570 1160 590 1060 580" stroke-width="1.0" opacity="0.5"/>
    <path d="M1250 640 C1210 660 1170 675 1050 660" stroke-width="0.9" opacity="0.45"/>
    <path d="M1260 720 C1220 740 1180 755 1045 740" stroke-width="0.9" opacity="0.45"/>
    <path d="M1270 800 C1230 815 1190 830 1035 810" stroke-width="0.8" opacity="0.4"/>
    <text x="1090" y="500" font-family="serif" font-size="14" fill="#4a6a7a"
          font-style="italic" letter-spacing="2" opacity="0.7"
          transform="rotate(-86, 1090, 500)">Gelion</text>
  </g>

  <!-- Esgalduin - river through Doriath -->
  <g fill="none" stroke="#5a7a8a" opacity="0.45">
    <path d="M540 440 C555 460 570 480 590 500 C610 520 630 540 650 560 C670 580 685 600 690 620"
          stroke-width="1.2"/>
    <text x="610" y="545" font-family="serif" font-size="9" fill="#4a6a7a"
          font-style="italic" opacity="0.6" transform="rotate(-42, 610, 545)">Esgalduin</text>
  </g>

  <!-- ==================== FORESTS ==================== -->

  <!-- DORIATH / Neldoreth Forest - around Menegroth -->
  <g stroke="#3d5a2a" fill="none" opacity="0.45">
    <!-- Tree symbols - small triangles with trunks -->
    <!-- Neldoreth (north Doriath) -->
    <g stroke-width="0.9">
      <path d="M540 445 L536 455 L544 455 Z"/><line x1="540" y1="455" x2="540" y2="459"/>
      <path d="M560 440 L556 450 L564 450 Z"/><line x1="560" y1="450" x2="560" y2="454"/>
      <path d="M555 458 L551 468 L559 468 Z"/><line x1="555" y1="468" x2="555" y2="472"/>
      <path d="M575 450 L571 460 L579 460 Z"/><line x1="575" y1="460" x2="575" y2="464"/>
      <path d="M530 468 L526 478 L534 478 Z"/><line x1="530" y1="478" x2="530" y2="482"/>
      <path d="M550 475 L546 485 L554 485 Z"/><line x1="550" y1="485" x2="550" y2="489"/>
      <path d="M570 468 L566 478 L574 478 Z"/><line x1="570" y1="478" x2="570" y2="482"/>
      <path d="M590 462 L586 472 L594 472 Z"/><line x1="590" y1="472" x2="590" y2="476"/>
      <path d="M585 480 L581 490 L589 490 Z"/><line x1="585" y1="490" x2="585" y2="494"/>
      <path d="M545 492 L541 502 L549 502 Z"/><line x1="545" y1="502" x2="545" y2="506"/>
      <path d="M565 495 L561 505 L569 505 Z"/><line x1="565" y1="505" x2="565" y2="509"/>
      <path d="M605 475 L601 485 L609 485 Z"/><line x1="605" y1="485" x2="605" y2="489"/>
      <path d="M620 488 L616 498 L624 498 Z"/><line x1="620" y1="498" x2="620" y2="502"/>
      <path d="M600 498 L596 508 L604 508 Z"/><line x1="600" y1="508" x2="600" y2="512"/>
      <path d="M615 510 L611 520 L619 520 Z"/><line x1="615" y1="520" x2="615" y2="524"/>
      <path d="M635 500 L631 510 L639 510 Z"/><line x1="635" y1="510" x2="635" y2="514"/>
      <path d="M525 500 L521 510 L529 510 Z"/><line x1="525" y1="510" x2="525" y2="514"/>
    </g>
    <!-- Region of Doriath (south) -->
    <g stroke-width="0.9">
      <path d="M560 515 L556 525 L564 525 Z"/><line x1="560" y1="525" x2="560" y2="529"/>
      <path d="M580 520 L576 530 L584 530 Z"/><line x1="580" y1="530" x2="580" y2="534"/>
      <path d="M600 525 L596 535 L604 535 Z"/><line x1="600" y1="535" x2="600" y2="539"/>
      <path d="M545 530 L541 540 L549 540 Z"/><line x1="545" y1="540" x2="545" y2="544"/>
      <path d="M575 540 L571 550 L579 550 Z"/><line x1="575" y1="550" x2="575" y2="554"/>
      <path d="M595 545 L591 555 L599 555 Z"/><line x1="595" y1="555" x2="595" y2="559"/>
      <path d="M620 535 L616 545 L624 545 Z"/><line x1="620" y1="545" x2="620" y2="549"/>
      <path d="M640 525 L636 535 L644 535 Z"/><line x1="640" y1="535" x2="640" y2="539"/>
      <path d="M555 555 L551 565 L559 565 Z"/><line x1="555" y1="565" x2="555" y2="569"/>
      <path d="M610 555 L606 565 L614 565 Z"/><line x1="610" y1="565" x2="610" y2="569"/>
      <path d="M635 548 L631 558 L639 558 Z"/><line x1="635" y1="558" x2="635" y2="562"/>
      <path d="M650 540 L646 550 L654 550 Z"/><line x1="650" y1="550" x2="650" y2="554"/>
    </g>
    <!-- Neldoreth label -->
    <text x="570" y="438" font-family="serif" font-size="11" fill="#3d5a2a"
          font-style="italic" letter-spacing="3" opacity="0.7" stroke="none">Neldoreth</text>
  </g>

  <!-- BRETHIL Forest - west of Sirion -->
  <g stroke="#3d5a2a" fill="none" opacity="0.4" stroke-width="0.9">
    <path d="M340 440 L336 450 L344 450 Z"/><line x1="340" y1="450" x2="340" y2="454"/>
    <path d="M358 435 L354 445 L362 445 Z"/><line x1="358" y1="445" x2="358" y2="449"/>
    <path d="M350 458 L346 468 L354 468 Z"/><line x1="350" y1="468" x2="350" y2="472"/>
    <path d="M368 452 L364 462 L372 462 Z"/><line x1="368" y1="462" x2="368" y2="466"/>
    <path d="M335 470 L331 480 L339 480 Z"/><line x1="335" y1="480" x2="335" y2="484"/>
    <path d="M355 478 L351 488 L359 488 Z"/><line x1="355" y1="488" x2="355" y2="492"/>
    <path d="M375 465 L371 475 L379 475 Z"/><line x1="375" y1="475" x2="375" y2="479"/>
    <path d="M345 490 L341 500 L349 500 Z"/><line x1="345" y1="500" x2="345" y2="504"/>
    <path d="M365 485 L361 495 L369 495 Z"/><line x1="365" y1="495" x2="365" y2="499"/>
    <text x="348" y="430" font-family="serif" font-size="10" fill="#3d5a2a"
          font-style="italic" letter-spacing="2" opacity="0.65" stroke="none" text-anchor="middle">Brethil</text>
  </g>

  <!-- Taur-im-Duinath (forest in south) -->
  <g stroke="#3d5a2a" fill="none" opacity="0.35" stroke-width="0.8">
    <path d="M700 780 L696 790 L704 790 Z"/><line x1="700" y1="790" x2="700" y2="794"/>
    <path d="M720 775 L716 785 L724 785 Z"/><line x1="720" y1="785" x2="720" y2="789"/>
    <path d="M740 785 L736 795 L744 795 Z"/><line x1="740" y1="795" x2="740" y2="799"/>
    <path d="M710 800 L706 810 L714 810 Z"/><line x1="710" y1="810" x2="710" y2="814"/>
    <path d="M735 805 L731 815 L739 815 Z"/><line x1="735" y1="815" x2="735" y2="819"/>
    <path d="M755 795 L751 805 L759 805 Z"/><line x1="755" y1="805" x2="755" y2="809"/>
    <path d="M725 820 L721 830 L729 830 Z"/><line x1="725" y1="830" x2="725" y2="834"/>
    <text x="728" y="770" font-family="serif" font-size="9" fill="#3d5a2a"
          font-style="italic" letter-spacing="1" opacity="0.55" stroke="none" text-anchor="middle">Taur-im-Duinath</text>
  </g>

  <!-- ==================== ANFAUGLITH (Wasteland) ==================== -->
  <g>
    <ellipse cx="500" cy="230" rx="140" ry="60" fill="url(#wastelandPattern)" opacity="0.6"/>
    <!-- Extra stipple dots for wasteland feel -->
    <circle cx="440" cy="220" r="0.8" fill="#3d2b1f" opacity="0.12"/>
    <circle cx="460" cy="240" r="0.7" fill="#3d2b1f" opacity="0.1"/>
    <circle cx="510" cy="210" r="0.9" fill="#3d2b1f" opacity="0.12"/>
    <circle cx="530" cy="250" r="0.6" fill="#3d2b1f" opacity="0.1"/>
    <circle cx="550" cy="225" r="0.8" fill="#3d2b1f" opacity="0.11"/>
    <circle cx="480" cy="255" r="0.7" fill="#3d2b1f" opacity="0.1"/>
    <circle cx="520" cy="235" r="0.9" fill="#3d2b1f" opacity="0.13"/>
  </g>

  <!-- ==================== REGION LABELS ==================== -->

  <!-- Hithlum region label -->
  <text x="300" y="225" text-anchor="middle" font-family="serif" font-size="22" fill="#3d2b1f"
        font-variant="small-caps" letter-spacing="10" opacity="0.5">Hithlum</text>

  <!-- Nevrast label (southwest of Hithlum) -->
  <text x="180" y="380" text-anchor="middle" font-family="serif" font-size="16" fill="#3d2b1f"
        font-variant="small-caps" letter-spacing="6" opacity="0.4">Nevrast</text>

  <!-- Anfauglith label -->
  <text x="500" y="250" text-anchor="middle" font-family="serif" font-size="18" fill="#3d2b1f"
        font-variant="small-caps" letter-spacing="8" opacity="0.55">Anfauglith</text>
  <text x="500" y="268" text-anchor="middle" font-family="serif" font-size="10" fill="#3d2b1f"
        font-style="italic" opacity="0.4">(Ard-galen)</text>

  <!-- Doriath region label -->
  <text x="580" y="505" text-anchor="middle" font-family="serif" font-size="20" fill="#3d2b1f"
        font-variant="small-caps" letter-spacing="10" opacity="0.5">Doriath</text>

  <!-- East Beleriand label -->
  <text x="900" y="500" text-anchor="middle" font-family="serif" font-size="20" fill="#3d2b1f"
        font-variant="small-caps" letter-spacing="10" opacity="0.4">East Beleriand</text>

  <!-- Ossiriand label -->
  <text x="1180" y="680" text-anchor="middle" font-family="serif" font-size="16" fill="#3d2b1f"
        font-variant="small-caps" letter-spacing="6" opacity="0.4"
        transform="rotate(-10, 1180, 680)">Ossiriand</text>
  <text x="1180" y="698" text-anchor="middle" font-family="serif" font-size="9" fill="#3d5a2a"
        font-style="italic" opacity="0.35"
        transform="rotate(-10, 1180, 698)">Land of Seven Rivers</text>

  <!-- Nan Dungortheb label -->
  <text x="620" y="408" text-anchor="middle" font-family="serif" font-size="10" fill="#3d2b1f"
        font-style="italic" letter-spacing="2" opacity="0.5">Nan Dungortheb</text>

  <!-- Dimbar -->
  <text x="480" y="370" text-anchor="middle" font-family="serif" font-size="10" fill="#3d2b1f"
        font-variant="small-caps" letter-spacing="2" opacity="0.4">Dimbar</text>

  <!-- West Beleriand -->
  <text x="280" y="620" text-anchor="middle" font-family="serif" font-size="16" fill="#3d2b1f"
        font-variant="small-caps" letter-spacing="6" opacity="0.35">West Beleriand</text>

  <!-- Talath Dirnen -->
  <text x="350" y="580" text-anchor="middle" font-family="serif" font-size="9" fill="#3d2b1f"
        font-variant="small-caps" letter-spacing="2" opacity="0.35">Talath Dirnen</text>

  <!-- Thargelion -->
  <text x="1200" y="400" text-anchor="middle" font-family="serif" font-size="13" fill="#3d2b1f"
        font-variant="small-caps" letter-spacing="4" opacity="0.4"
        transform="rotate(-5, 1200, 400)">Thargelion</text>

  <!-- Dor-Lómin -->
  <text x="290" y="200" text-anchor="middle" font-family="serif" font-size="11" fill="#3d2b1f"
        font-style="italic" letter-spacing="2" opacity="0.45">Dor-Lómin</text>

  <!-- Lothlann -->
  <text x="800" y="200" text-anchor="middle" font-family="serif" font-size="13" fill="#3d2b1f"
        font-variant="small-caps" letter-spacing="4" opacity="0.35">Lothlann</text>

  <!-- Himlad -->
  <text x="800" y="380" text-anchor="middle" font-family="serif" font-size="11" fill="#3d2b1f"
        font-variant="small-caps" letter-spacing="3" opacity="0.38">Himlad</text>

  <!-- Estolad -->
  <text x="850" y="550" text-anchor="middle" font-family="serif" font-size="11" fill="#3d2b1f"
        font-variant="small-caps" letter-spacing="3" opacity="0.35">Estolad</text>

  <!-- Arvernien -->
  <text x="300" y="880" text-anchor="middle" font-family="serif" font-size="11" fill="#3d2b1f"
        font-variant="small-caps" letter-spacing="3" opacity="0.4">Arvernien</text>

  <!-- ==================== DORIATH GIRDLE (Melian's fence) ==================== -->
  <ellipse cx="590" cy="510" rx="90" ry="70" fill="none" stroke="#3d2b1f"
           stroke-width="0.8" stroke-dasharray="4,6,2,6" opacity="0.25"/>

  <!-- ==================== LOCATION MARKERS ==================== -->

  <!-- ANGBAND - SVG (500, 150) -->
  <g transform="translate(500, 150)">
    <circle cx="0" cy="0" r="5" fill="#3d2b1f" opacity="0.8"/>
    <circle cx="0" cy="0" r="8" fill="none" stroke="#3d2b1f" stroke-width="1" opacity="0.5"/>
    <!-- Fortress symbol -->
    <rect x="-4" y="-12" width="8" height="6" fill="none" stroke="#3d2b1f" stroke-width="1" opacity="0.7"/>
    <line x1="-4" y1="-12" x2="-4" y2="-15" stroke="#3d2b1f" stroke-width="0.8" opacity="0.6"/>
    <line x1="4" y1="-12" x2="4" y2="-15" stroke="#3d2b1f" stroke-width="0.8" opacity="0.6"/>
    <line x1="0" y1="-12" x2="0" y2="-16" stroke="#3d2b1f" stroke-width="0.8" opacity="0.6"/>
    <text x="14" y="4" font-family="serif" font-size="14" fill="#3d2b1f" font-weight="bold"
          letter-spacing="1">Angband</text>
    <text x="14" y="16" font-family="serif" font-size="9" fill="#3d2b1f" font-style="italic" opacity="0.6">
      Hells of Iron</text>
  </g>

  <!-- THANGORODRIM - SVG (480, 120) -->
  <g transform="translate(480, 105)">
    <text x="0" y="-8" font-family="serif" font-size="11" fill="#3d2b1f" font-weight="bold"
          text-anchor="middle" letter-spacing="1">Thangorodrim</text>
  </g>

  <!-- GONDOLIN - SVG (550, 350) -->
  <g transform="translate(550, 350)">
    <circle cx="0" cy="0" r="4.5" fill="#3d2b1f" opacity="0.75"/>
    <circle cx="0" cy="0" r="7.5" fill="none" stroke="#3d2b1f" stroke-width="0.8" opacity="0.45"/>
    <!-- Hidden city symbol - circle within circle -->
    <circle cx="0" cy="0" r="11" fill="none" stroke="#3d2b1f" stroke-width="0.5" stroke-dasharray="2,3" opacity="0.35"/>
    <text x="-45" y="-12" font-family="serif" font-size="13" fill="#3d2b1f" font-weight="bold"
          letter-spacing="1">Gondolin</text>
    <text x="-45" y="0" font-family="serif" font-size="8" fill="#3d2b1f" font-style="italic" opacity="0.55">
      The Hidden City</text>
  </g>

  <!-- NARGOTHROND - SVG (400, 550) -->
  <g transform="translate(400, 550)">
    <circle cx="0" cy="0" r="4.5" fill="#3d2b1f" opacity="0.75"/>
    <circle cx="0" cy="0" r="7.5" fill="none" stroke="#3d2b1f" stroke-width="0.8" opacity="0.45"/>
    <text x="14" y="-6" font-family="serif" font-size="13" fill="#3d2b1f" font-weight="bold"
          letter-spacing="1">Nargothrond</text>
    <text x="14" y="6" font-family="serif" font-size="8" fill="#3d2b1f" font-style="italic" opacity="0.55">
      Realm of Finrod</text>
  </g>

  <!-- MENEGROTH - SVG (600, 500) -->
  <g transform="translate(600, 500)">
    <circle cx="0" cy="0" r="4.5" fill="#3d2b1f" opacity="0.75"/>
    <circle cx="0" cy="0" r="7.5" fill="none" stroke="#3d2b1f" stroke-width="0.8" opacity="0.45"/>
    <text x="14" y="-6" font-family="serif" font-size="13" fill="#3d2b1f" font-weight="bold"
          letter-spacing="1">Menegroth</text>
    <text x="14" y="6" font-family="serif" font-size="8" fill="#3d2b1f" font-style="italic" opacity="0.55">
      Thousand Caves</text>
  </g>

  <!-- HITHLUM marker - SVG (300, 250) -->
  <g transform="translate(300, 250)">
    <circle cx="0" cy="0" r="3" fill="#3d2b1f" opacity="0.6"/>
    <!-- Lake symbol for Mithrim -->
    <ellipse cx="10" cy="15" rx="20" ry="8" fill="#8aabbf" fill-opacity="0.2" stroke="#5a7a8a" stroke-width="0.8" opacity="0.5"/>
    <text x="10" y="18" text-anchor="middle" font-family="serif" font-size="7" fill="#4a6a7a"
          font-style="italic" opacity="0.5">L. Mithrim</text>
  </g>

  <!-- HAVENS OF SIRION - SVG (350, 850) -->
  <g transform="translate(350, 850)">
    <circle cx="0" cy="0" r="4" fill="#3d2b1f" opacity="0.7"/>
    <circle cx="0" cy="0" r="7" fill="none" stroke="#3d2b1f" stroke-width="0.7" opacity="0.4"/>
    <text x="14" y="-4" font-family="serif" font-size="12" fill="#3d2b1f" font-weight="bold"
          letter-spacing="1">Havens of Sirion</text>
    <text x="14" y="8" font-family="serif" font-size="8" fill="#3d2b1f" font-style="italic" opacity="0.55">
      Mouths of Sirion</text>
    <!-- Small ship/anchor symbol -->
    <path d="M-8 5 L-8 -2 M-12 -2 L-4 -2 M-8 5 C-12 8 -4 8 -8 5"
          fill="none" stroke="#3d2b1f" stroke-width="0.8" opacity="0.5"/>
  </g>

  <!-- TOL SIRION - SVG (450, 400) -->
  <g transform="translate(450, 400)">
    <circle cx="0" cy="0" r="3.5" fill="#3d2b1f" opacity="0.65"/>
    <!-- Island symbol -->
    <ellipse cx="0" cy="0" rx="8" ry="5" fill="none" stroke="#3d2b1f" stroke-width="0.6" opacity="0.35"/>
    <text x="14" y="-4" font-family="serif" font-size="11" fill="#3d2b1f" font-weight="bold"
          letter-spacing="1">Tol Sirion</text>
    <text x="14" y="7" font-family="serif" font-size="7" fill="#3d2b1f" font-style="italic" opacity="0.5">
      Isle of Finrod</text>
  </g>

  <!-- ==================== ADDITIONAL LOCATIONS ==================== -->

  <!-- Barad Eithel -->
  <g transform="translate(340, 180)">
    <circle cx="0" cy="0" r="2.5" fill="#3d2b1f" opacity="0.55"/>
    <text x="8" y="4" font-family="serif" font-size="9" fill="#3d2b1f" letter-spacing="0.5" opacity="0.6">Barad Eithel</text>
  </g>

  <!-- Vinyamar (in Nevrast) -->
  <g transform="translate(160, 360)">
    <circle cx="0" cy="0" r="2" fill="#3d2b1f" opacity="0.5"/>
    <text x="8" y="4" font-family="serif" font-size="8" fill="#3d2b1f" opacity="0.5">Vinyamar</text>
  </g>

  <!-- Himring -->
  <g transform="translate(850, 320)">
    <circle cx="0" cy="0" r="2.5" fill="#3d2b1f" opacity="0.55"/>
    <text x="8" y="4" font-family="serif" font-size="9" fill="#3d2b1f" letter-spacing="0.5" opacity="0.55">Himring</text>
  </g>

  <!-- Amon Ereb -->
  <g transform="translate(900, 650)">
    <circle cx="0" cy="0" r="2" fill="#3d2b1f" opacity="0.45"/>
    <text x="8" y="4" font-family="serif" font-size="8" fill="#3d2b1f" opacity="0.5">Amon Ereb</text>
  </g>

  <!-- Mount Dolmed (in Ered Luin, passage) -->
  <g transform="translate(1330, 400)">
    <circle cx="0" cy="0" r="2" fill="#3d2b1f" opacity="0.45"/>
    <text x="-60" y="4" font-family="serif" font-size="8" fill="#3d2b1f" opacity="0.5">Mt. Dolmed</text>
  </g>

  <!-- ==================== PASS MARKERS ==================== -->

  <!-- Pass of Sirion (between Ered Wethrin and Ered Gorgoroth) -->
  <g transform="translate(440, 310)">
    <text x="0" y="0" font-family="serif" font-size="8" fill="#3d2b1f" font-style="italic"
          opacity="0.45" text-anchor="middle">Pass of Sirion</text>
    <path d="M-15 5 L0 -2 L15 5" fill="none" stroke="#3d2b1f" stroke-width="0.6" opacity="0.35"/>
  </g>

  <!-- Maglor's Gap -->
  <g transform="translate(950, 290)">
    <text x="0" y="0" font-family="serif" font-size="8" fill="#3d2b1f" font-style="italic"
          opacity="0.4" text-anchor="middle">Maglor's Gap</text>
  </g>

  <!-- ==================== COMPASS ROSE ==================== -->
  <g transform="translate(1380, 900)">
    <!-- Outer ring -->
    <circle cx="0" cy="0" r="35" fill="none" stroke="#3d2b1f" stroke-width="1" opacity="0.5"/>
    <circle cx="0" cy="0" r="33" fill="none" stroke="#3d2b1f" stroke-width="0.4" opacity="0.3"/>
    <!-- N-S line -->
    <line x1="0" y1="-30" x2="0" y2="30" stroke="#3d2b1f" stroke-width="0.5" opacity="0.3"/>
    <!-- E-W line -->
    <line x1="-30" y1="0" x2="30" y2="0" stroke="#3d2b1f" stroke-width="0.5" opacity="0.3"/>
    <!-- North arrow (main, dark) -->
    <path d="M0 -28 L-6 0 L0 -8 Z" fill="#3d2b1f" opacity="0.7"/>
    <path d="M0 -28 L6 0 L0 -8 Z" fill="#3d2b1f" opacity="0.4"/>
    <!-- South arrow -->
    <path d="M0 28 L-5 0 L0 8 Z" fill="#3d2b1f" opacity="0.25"/>
    <path d="M0 28 L5 0 L0 8 Z" fill="#3d2b1f" opacity="0.15"/>
    <!-- East arrow -->
    <path d="M28 0 L0 -5 L8 0 Z" fill="#3d2b1f" opacity="0.25"/>
    <path d="M28 0 L0 5 L8 0 Z" fill="#3d2b1f" opacity="0.15"/>
    <!-- West arrow -->
    <path d="M-28 0 L0 -5 L-8 0 Z" fill="#3d2b1f" opacity="0.25"/>
    <path d="M-28 0 L0 5 L-8 0 Z" fill="#3d2b1f" opacity="0.15"/>
    <!-- Diagonal lines -->
    <line x1="-18" y1="-18" x2="18" y2="18" stroke="#3d2b1f" stroke-width="0.4" opacity="0.2"/>
    <line x1="18" y1="-18" x2="-18" y2="18" stroke="#3d2b1f" stroke-width="0.4" opacity="0.2"/>
    <!-- Cardinal labels -->
    <text x="0" y="-38" text-anchor="middle" font-family="serif" font-size="12" fill="#3d2b1f"
          font-weight="bold" opacity="0.7">N</text>
    <text x="0" y="46" text-anchor="middle" font-family="serif" font-size="9" fill="#3d2b1f" opacity="0.45">S</text>
    <text x="42" y="4" text-anchor="middle" font-family="serif" font-size="9" fill="#3d2b1f" opacity="0.45">E</text>
    <text x="-42" y="4" text-anchor="middle" font-family="serif" font-size="9" fill="#3d2b1f" opacity="0.45">W</text>
    <!-- Center dot -->
    <circle cx="0" cy="0" r="2" fill="#3d2b1f" opacity="0.5"/>
  </g>

  <!-- ==================== TITLE CARTOUCHE ==================== -->
  <g transform="translate(750, 920)">
    <!-- Decorative frame -->
    <rect x="-160" y="-35" width="320" height="60" rx="6" ry="6"
          fill="#d4c5a0" stroke="#3d2b1f" stroke-width="1.5" opacity="0.9"/>
    <rect x="-155" y="-31" width="310" height="52" rx="4" ry="4"
          fill="none" stroke="#3d2b1f" stroke-width="0.5" opacity="0.4"/>
    <!-- Ornamental flourishes -->
    <path d="M-140 -35 C-140 -42 -130 -42 -130 -35" fill="none" stroke="#3d2b1f" stroke-width="0.8" opacity="0.4"/>
    <path d="M130 -35 C130 -42 140 -42 140 -35" fill="none" stroke="#3d2b1f" stroke-width="0.8" opacity="0.4"/>
    <path d="M-140 25 C-140 32 -130 32 -130 25" fill="none" stroke="#3d2b1f" stroke-width="0.8" opacity="0.4"/>
    <path d="M130 25 C130 32 140 32 140 25" fill="none" stroke="#3d2b1f" stroke-width="0.8" opacity="0.4"/>
    <!-- Title text -->
    <text x="0" y="-8" text-anchor="middle" font-family="serif" font-size="22" fill="#3d2b1f"
          font-variant="small-caps" letter-spacing="8" font-weight="bold">Beleriand</text>
    <text x="0" y="14" text-anchor="middle" font-family="serif" font-size="11" fill="#3d2b1f"
          font-style="italic" letter-spacing="3" opacity="0.65">in the First Age of Middle-earth</text>
  </g>

  <!-- ==================== SCALE BAR ==================== -->
  <g transform="translate(100, 930)">
    <line x1="0" y1="0" x2="100" y2="0" stroke="#3d2b1f" stroke-width="1" opacity="0.5"/>
    <line x1="0" y1="-4" x2="0" y2="4" stroke="#3d2b1f" stroke-width="0.8" opacity="0.5"/>
    <line x1="50" y1="-3" x2="50" y2="3" stroke="#3d2b1f" stroke-width="0.6" opacity="0.4"/>
    <line x1="100" y1="-4" x2="100" y2="4" stroke="#3d2b1f" stroke-width="0.8" opacity="0.5"/>
    <text x="50" y="14" text-anchor="middle" font-family="serif" font-size="8" fill="#3d2b1f" opacity="0.5">
      ~100 leagues</text>
  </g>

  <!-- ==================== VIGNETTE OVERLAY ==================== -->
  <rect width="1500" height="1000" fill="url(#vignette)"/>
</svg>